<svg width="159" height="260" viewBox="0 0 159 260" fill="none" xmlns="http://www.w3.org/2000/svg">
<path d="M148.073 11.5189L121.448 0.603813L46.958 0L12.1111 12.1111L0 30.6551L14.0618 46.6561L50.8596 55.632L111.438 50.9989L150.326 39.1781L159 25.2672L148.085 11.5073L148.073 11.5189ZM120.472 32.4433L52.3459 35.2998L21.9811 29.0178L26.6142 23.0378L51.9627 13.5509H117.163L137.6 20.8083L120.472 32.4433Z" fill="#FFF21F"/>
<path d="M121.564 76.8236L105.319 72.0627L90.3745 68.556C90.3745 68.556 56.5958 71.6215 52.5317 71.6215C48.4675 71.6215 34.2664 76.8119 34.2664 76.8119L30.7132 132.061V163.958L28.4721 240.805L38.5395 257.061L75.3721 259.372H102.776L117.999 249.851L120.031 222.168V181.504L125.105 132.188L121.552 76.8119L121.564 76.8236ZM74.327 154.797L41.0825 157.293L42.4294 133.152L45.4949 122.899L51.4401 84.9518L63.6093 83.7093L57.6641 115.804L55.841 144.067H66.6632L75.0005 142.918L74.327 154.797ZM89.0856 107.641L103.658 107.548L104.541 115.351L89.8983 115.224L80.2722 118.463L79.9819 126.22L112.46 124.687V133.501L63.11 137.716L64.1667 119.323L66.849 111.461L70.0074 92.0118L101.824 88.4469L114.748 90.6183L111.868 98.1544L98.5491 97.0396L80.3535 100.721L79.2968 108.675L89.0739 107.618L89.0856 107.641Z" fill="#FFF21F"/>
</svg>
