<svg xmlns="http://www.w3.org/2000/svg" width="89.044" height="145.263" viewBox="0 0 89.044 145.263">
  <g id="Group_337" data-name="Group 337" transform="translate(-652.265 -358.429)">
    <path id="Path_186" data-name="Path 186" d="M413.792,101.463l2.6-3.351,14.2-5.313H467.1l11.446,4.062-9.593,6.517-38.156,1.6ZM408.264,92l-6.784,10.387,7.873,8.963,20.607,5.026,33.926-2.6,21.78-6.617,4.858-7.79-6.115-7.706L469.5,85.548l-41.716-.336Z" transform="translate(250.785 273.217)" fill="#e7104c"/>
    <path id="Path_187" data-name="Path 187" d="M469.007,126.9l-9.094-2.665-8.368-1.962s-18.916,1.72-21.19,1.72-10.231,2.907-10.231,2.907l-1.99,30.943v17.864l-1.254,43.035,5.635,9.1,20.63,1.294h15.347l8.527-5.329,1.137-15.507V185.529L471,157.91Zm-26.456,43.667-18.62,1.4.751-13.523L426.4,152.7l3.327-21.251,6.815-.7-3.327,17.977-1.02,15.83h6.064l4.668-.643Zm8.266-26.411,8.162-.05.494,4.369-8.2-.068-5.392,1.813-.161,4.346,18.191-.859v4.937L436.275,161l.591-10.3,1.5-4.4,1.771-10.894,17.821-1.992,7.239,1.218-1.614,4.219-7.461-.624-10.19,2.063-.591,4.454Z" transform="translate(251.34 274.553)" fill="#e7104c"/>
  </g>
</svg>
